<?xml version="1.0" encoding="utf-8"?>
<!-- Generator: Adobe Illustrator 22.1.0, SVG Export Plug-In . SVG Version: 6.00 Build 0)  -->
<svg version="1.1" id="Layer_1" xmlns="http://www.w3.org/2000/svg" xmlns:xlink="http://www.w3.org/1999/xlink" x="0px" y="0px"
	 viewBox="0 0 300 300" style="enable-background:new 0 0 300 300;" xml:space="preserve">
<style type="text/css">
	.st0{fill:#D82727;}
</style>
<rect y="0" transform="matrix(-1 2.986160e-15 -2.986160e-15 -1 300 300)" class="st0" width="300" height="300"/>
<g>
	<path d="M69.6,156.9c-0.9-0.9-1.2-1.6-1-2.1c0.3-0.5,0.8-0.9,1.7-1.1c0.2-0.2,0.8-0.4,1.8-0.8c1.1-0.4,2.3-0.8,3.7-1.2
		c1.4-0.4,2.8-0.8,4.2-1.1c1.4-0.3,2.6-0.7,3.5-1l1.5-0.3l5.9,9.8l29,29c1.6,1.6,3.4,4.1,5.4,7.4c2,3.3,4.1,7.5,6.3,12.6
		c2.2,5.1,3.6,11,4.2,17.8c0.6,6.8,0.1,13.5-1.5,20.1l-1.3,0.1c0-0.8-0.1-1.8-0.3-3.3c-0.2-1.4-0.8-4.1-1.8-8.2
		c-1-4.1-2.3-8-3.8-11.9c-1.5-3.9-3.9-8.4-7-13.4c-3.2-5.1-6.8-9.6-10.9-13.8l-25-25C75.4,161.9,70.6,157.5,69.6,156.9z M84.3,124.4
		l55.9,55.9c1.8,1.8,4.4,4.3,7.9,7.5c3.5,3.3,5.9,5.5,7.1,6.7c1.2,1.2,2.4,2.6,3.5,4.2c0.2,0.5,0.2,1,0.3,1.8c0,0.7-0.1,1.7-0.3,2.8
		c-0.2,1.1-0.4,2.1-0.6,2.7c-0.2,0.7-0.4,1.8-0.9,3.4c-0.4,1.6-0.7,2.5-0.7,2.7c-1.9,0.2-3.7-0.4-5.3-1.9c-1.6-1.5-4.5-4.6-8.4-9.5
		c-4-4.8-8.1-9.3-12.3-13.5L76,132.7l-4.8,4.8c-1.4,1.4-8.2,8.5-20.6,21.5l-5.8-3.3c0.8-0.4,3.4-2.5,7.8-6.3
		c4.4-3.8,7.3-6.5,8.7-7.9l25-25l-0.1-15l18.7,0c0.4,0.4,0.3,1-0.2,1.8c-0.5,0.8-1.4,1.9-2.5,3.1c-1.1,1.2-2.2,2.4-3.3,3.4
		c-1.1,1.1-2.2,2.2-3.5,3.5s-2,2-2.2,2.2L84.3,124.4z M62,113.5c-0.7,0.7-2.5,2.7-5.6,6.2c-3,3.4-7.3,8.3-12.7,14.6l-6.5-4
		c0.8-0.3,3.3-2.4,7.8-6.3c4.4-3.9,7.3-6.5,8.8-8l8-8L61.6,93l18.8,0.1c0.3,0.3,0.2,0.9-0.3,1.8c-0.5,0.9-1.3,1.9-2.5,3.1
		c-1.1,1.2-2.2,2.3-3.3,3.4s-2.2,2.2-3.5,3.4c-1.3,1.2-2.1,2-2.4,2.3L62,113.5z M113.3,123l6.1,9.9l19.9,19.9c1.6,1.6,4.1,4,7.4,7.1
		c3.3,3.2,5.9,5.7,7.7,7.6c1.8,1.9,2.9,3.2,3.2,3.8c0,0.2,0.1,0.4,0.2,0.7c0.5,1,0.9,1.8,1.1,2.5c0.2,0.6,0.1,1.7-0.3,3.1
		c-0.4,1.4-1.2,3.1-2.4,4.9c-0.5,0.6-1.3,0.7-2.4,0.2c-1.1-0.5-2.5-1.4-3.9-2.8c-1.5-1.4-2.9-2.8-4.2-4.2c-1.3-1.4-2.6-2.9-4.1-4.5
		c-1.4-1.6-2.3-2.7-2.8-3.1L113.6,143c-8.8-8.4-13.7-12.8-14.6-13.2c-1-1-1.4-1.7-1.1-2.2c0.3-0.5,0.9-0.9,1.8-1.2
		c0.2-0.2,1.5-0.6,3.8-1.1c2.3-0.5,4.5-1,6.6-1.5L113.3,123z M120.8,31.9l17.4-0.9c0.3,0.3,0.1,1-0.7,2.2c-0.8,1.2-2,2.6-3.5,4.2
		c-1.6,1.6-3,3.2-4.5,4.6c-1.4,1.4-2.9,2.9-4.6,4.5c-1.6,1.6-2.6,2.5-2.8,2.7l-15.5,15.5L89,85.2l-6.1-1.9l-0.3-1.5
		c0.2-0.6,0.5-1.1,0.9-1.6c6.1-4.9,10.7-8.9,13.8-12l21.3-21.3L120.8,31.9z M185.6,80.2l1.7,7.2l28.2,28.2c1.3,1.3,3.3,3,5.9,5
		c2.7,2.1,4.6,3.7,5.7,5c0.8,1.5,1.2,4.1,1.4,7.8c0.1,3.7-0.1,5.9-0.7,6.8c-0.2,0.2-1,0.1-2.5-0.2c-1.5-0.3-3.4-0.7-5.8-1.2
		c-2.3-0.5-4.1-0.8-5.3-1l-27.3,27.3l0.2,0.2c1.5,1.5,2.6,3,3.2,4.3c0.5,0.9,0.9,2.5,1.2,4.7c0.3,2.2,0.4,4.4,0.3,6.6
		c-0.1,1-1,1.8-2.8,2.5c-1.8,0.6-3.4,0.3-4.7-1.1c-1.1-1.1-2.8-3-5-5.6c-2.2-2.6-3.5-4-3.8-4.3l-31.7-31.7
		c-7.4-7.1-11.5-10.8-12.4-11.3c-1-1-1.4-1.7-1.1-2.2c0.3-0.5,0.8-0.9,1.7-1.1c0.3-0.3,3.1-1.7,8.4-4.3l29.3-29.3l-0.2-12.1
		L185.6,80.2z M130.4,117.3c-2-1.8-4.1-3.9-6.3-6.1c-2.2-2.2-4.3-4.3-6.2-6.1c-1.9-1.8-3.7-3.5-5.3-5.1c-1.6-1.6-3.4-3.3-5.3-5.2
		c-1.1-1.2-2.5-2.7-4.2-4.5c-1.7-1.7-2.4-2.8-2.1-3.2c0.2-0.2,0.3-0.3,0.6-0.3c0.5-0.2,1.5-0.5,2.9-0.9c1.4-0.3,3.1-0.7,5.1-1.1
		c2-0.4,3.7-0.8,5-1.3L131,67.2l-0.9-13.5l15.4-0.8c0.9,5.5,1.6,8.5,2.2,9c0.1,0.1,1.6,1.4,4.5,3.9c2.9,2.6,5.4,4.7,7.5,6.6
		c2.1,1.8,3.3,3.2,3.8,4.1c-0.2,0.2-0.6,0.5-1.3,1c-0.7,0.5-1.7,1.3-3,2.3c-1.3,1-2.5,2.2-3.8,3.5l-20.9,20.9
		c2.1,6.2,2.5,11.6,1.1,16c-0.2,0.5-1.2,0-3.2-1.4C131.5,118.2,130.8,117.7,130.4,117.3z M171.8,130.3l-17.1-17.1l-9.8,9.8
		l17.1,17.1L171.8,130.3z M193.9,152.5l-19.3-19.3l-9.8,9.8l19.3,19.3L193.9,152.5z M134.9,69l-17.6,17.6l14.8,14.2l17.2-17.2
		L134.9,69z M191.2,110.9l-17-17.2L164,103.8l17.1,17.1L191.2,110.9z M213.2,133.2L194,113.8l-10,10l19.3,19.3L213.2,133.2z"/>
</g>
<g>
	<path d="M171.4,269.9c1.4-1.8,1.5-3.5,0.2-4.8l-17.5-17.5c-1.8-1.8-2.2-2.2-5.3-0.1l-1.1-1.1l2.7-2.7c4.5-4.5,5.8-6.1,5.8-6.1
		l0.3,0c0,0,0.4,2.8,3.5,5.9l16.2,16.2c1.1,1.1,1.9,2.3,1.9,2.3l5.4-5.4c3-3,2.4-5.3,0.6-10.9l1.5-1.5l5.5,8.7l-11.9,11.9
		c-2.5,2.5-6.3,6.5-6.3,6.5L171.4,269.9z"/>
	<path d="M174.5,227.3c-1.8-1.8-2.2-2.2-5.3-0.1L168,226l2.7-2.7c4.7-4.7,5.8-6.1,5.8-6.1l0.3,0c0,0,0.3,2.7,3.5,5.9l11.2,11.2
		c5.1,5.1,10.8,3.8,14.2,0.4c3.4-3.4,4.4-9.2-0.3-13.9l-12.1-12.1c-1.6-1.6-2.5-2.5-5.6,0l-1.2-1.2l7.7-7.7l0.9,0.5
		c0,0-1.9,3.7,1.2,6.8l11.3,11.3c6.2,6.2,4.8,13.9-1,19.7c-5,5-13.1,8.3-19.9,1.5L174.5,227.3z"/>
	<path d="M209.8,183.4c3.3-3.3,7.7-5.9,9.9-7.8l4.7,7l-1.5,1.5c-3.9-3.6-8.2-1.9-11.7,1.6c-6,6-3.8,13.3,1.3,18.5
		c7,7,15.7,5.8,21.2,0.3c4.3-4.3,4.6-9.8,4.6-9.8l1.6,0.3c0,0,1.8,8-5.2,15c-8.3,8.3-19.3,7.1-25.7,0.6
		C202.7,204.3,200.5,192.7,209.8,183.4z"/>
	<path d="M246,195.4c1.3-1.7,1.5-3.5,0.2-4.8l-17.5-17.5c-1.8-1.8-2.2-2.2-5.3-0.1l-1.1-1.1l2.7-2.7c4.7-4.7,5.8-6.1,5.8-6.1l0.3,0
		c0,0,0.2,2.7,3.3,5.8l6.6,6.6l0.7-0.7c0,0,0.4-1.8,0.4-3.2l-0.2-13.2c0-1.4-0.8-2.4-3-0.6l-1.1-1.1l7.5-7.5l0.9,0.5
		c0,0-1.6,3.1-1.5,6.5l0.3,13l0.6,0.6l19.3,2.5c3.4,0.4,3.9,0.2,4.9-0.6l0.4-0.4l1.2,1.5l-7.2,7.2h-0.3c0,0-1.4-0.9-6.4-1.5
		l-13.8-1.8l-0.7,0.7l8.3,8.3c1.1,1.1,1.7,2.1,1.7,2.1l3.5-2.8l1.1,1.4l-10.1,10.6L246,195.4z"/>
</g>
</svg>
