<?xml version="1.0" encoding="utf-8"?>
<!-- Generator: Adobe Illustrator 22.1.0, SVG Export Plug-In . SVG Version: 6.00 Build 0)  -->
<svg version="1.1" id="Layer_1" xmlns="http://www.w3.org/2000/svg" xmlns:xlink="http://www.w3.org/1999/xlink" x="0px" y="0px"
	 viewBox="0 0 300 300" style="enable-background:new 0 0 300 300;" xml:space="preserve">
<style type="text/css">
	.st0{fill:#D82727;}
</style>
<rect x="46" y="46" transform="matrix(0.7071 0.7071 -0.7071 0.7071 150 -62.132)" class="st0" width="207.9" height="207.9"/>
<g>
	<path d="M192.8,186c0,0.9-0.2,1.4-0.6,1.5c-0.4,0.1-0.8,0-1.3-0.3c-0.1,0-0.6-0.2-1.3-0.5c-0.7-0.3-1.5-0.7-2.4-1.2
		c-0.9-0.5-1.8-1-2.6-1.5c-0.9-0.5-1.6-0.9-2.2-1.2l-0.9-0.6l1.9-7.7v-28.4c0-1.6,0.3-3.7,1-6.3c0.6-2.6,1.7-5.7,3.1-9.2
		c1.4-3.5,3.6-7.1,6.7-10.7c3-3.6,6.5-6.7,10.6-9.1l0.7,0.6c-0.4,0.4-0.9,1-1.5,1.7c-0.6,0.8-1.6,2.4-3.1,4.9
		c-1.5,2.5-2.8,5.1-4,7.7c-1.2,2.6-2.2,6-3.1,10c-0.9,4-1.4,8.1-1.4,12.1v24.5C192.4,180.7,192.6,185.3,192.8,186z M169.6,194.7
		v-54.8c0-1.7-0.1-4.2-0.2-7.6c-0.1-3.3-0.2-5.6-0.2-6.8c0-1.2,0.1-2.5,0.3-3.8c0.2-0.3,0.4-0.6,0.7-1c0.3-0.4,0.8-0.8,1.5-1.2
		c0.7-0.4,1.2-0.8,1.6-1.1c0.4-0.3,1.1-0.7,2.1-1.2c1-0.6,1.5-0.9,1.7-1c1,0.8,1.6,2,1.7,3.5c0.1,1.5-0.1,4.5-0.5,8.8
		c-0.4,4.3-0.6,8.5-0.6,12.6v53.5h4.7c1.3,0,8.2-0.2,20.6-0.4l1.2,4.5c-0.6-0.2-2.9-0.5-6.9-0.7c-4-0.3-6.8-0.4-8.2-0.4h-24.5
		l-7.3,7.4l-9.2-9.2c0-0.4,0.3-0.6,1-0.8c0.7-0.2,1.6-0.2,2.7-0.3c1.2,0,2.3-0.1,3.3-0.1c1,0,2.2,0,3.4,0s2,0,2.2,0H169.6z
		 M175.2,211c0.7,0,2.6-0.1,5.8-0.3c3.2-0.2,7.6-0.5,13.4-1l1.2,5.1c-0.5-0.2-2.8-0.5-6.9-0.7c-4.1-0.3-6.8-0.4-8.2-0.4h-7.8
		l-7.3,7.5l-9.2-9.3c0-0.3,0.3-0.5,1-0.7c0.7-0.2,1.6-0.3,2.7-0.3c1.2,0,2.2-0.1,3.2-0.1c1,0,2.1,0,3.4,0.1c1.2,0,2,0.1,2.3,0.1
		H175.2z M154.8,181.2l1.9-7.8v-19.5c0-1.6,0-3.9-0.1-7.1c-0.1-3.2-0.1-5.7-0.1-7.5c0-1.8,0.1-3,0.3-3.4c0.1-0.1,0.2-0.2,0.2-0.4
		c0.2-0.7,0.4-1.3,0.7-1.7c0.2-0.4,0.8-0.9,1.7-1.4c0.9-0.5,2.1-0.9,3.6-1.2c0.5-0.1,0.9,0.3,1.3,1.1c0.3,0.8,0.5,1.9,0.6,3.3
		c0,1.4,0,2.8,0,4.1c0,1.3-0.1,2.7-0.2,4.2c-0.1,1.5-0.2,2.5-0.2,2.9v24.6c0.2,8.4,0.4,13,0.7,13.6c0,1-0.2,1.5-0.6,1.6
		c-0.4,0.1-0.9,0-1.5-0.3c-0.2,0-1-0.4-2.4-1.3c-1.4-0.9-2.7-1.7-4-2.5L154.8,181.2z M106.4,222.2l-9-8.1c0-0.3,0.5-0.5,1.5-0.7
		c1-0.2,2.2-0.3,3.8-0.3c1.6,0,3-0.1,4.4-0.1c1.4,0,2.9,0,4.4,0.1c1.6,0,2.5,0.1,2.7,0.1h15.2l18.7-1.5l2,3.9l-0.6,0.9
		c-0.4,0.2-0.8,0.3-1.2,0.3c-5.4-0.6-9.6-0.9-12.6-0.9h-20.9L106.4,222.2z M98.4,166.8l2.7-4.4v-27.6c0-1.3-0.1-3.1-0.4-5.4
		c-0.3-2.3-0.4-4.1-0.3-5.3c0.4-1.1,1.4-2.6,3.1-4.5c1.7-1.9,2.9-2.9,3.7-3c0.2,0,0.5,0.4,1.1,1.3c0.6,0.9,1.3,2,2.2,3.4
		c0.9,1.4,1.6,2.4,2.1,3.1h26.7v-0.2c0-1.5,0.2-2.7,0.6-3.7c0.2-0.7,0.8-1.6,1.7-2.9c0.9-1.3,2-2.4,3.1-3.4c0.5-0.4,1.4-0.4,2.6,0.2
		c1.2,0.6,1.8,1.5,1.8,2.9c0,1.1-0.1,2.9-0.3,5.2c-0.2,2.3-0.3,3.7-0.3,4v31.1c0.2,7.1,0.3,11,0.6,11.6c0,1-0.2,1.5-0.6,1.6
		c-0.4,0.1-0.8,0-1.3-0.3c-0.3,0-2.4-0.7-6.3-2h-28.8l-5.8,6L98.4,166.8z M143.6,175.6c0.1,1.9,0.1,3.9,0.1,6.1c0,2.2,0,4.2,0.1,6
		c0,1.8,0.1,3.5,0.1,5.1c0,1.6,0.1,3.3,0.1,5.1c-0.1,1.1-0.1,2.5-0.1,4.3c0,1.7-0.2,2.6-0.6,2.6c-0.1,0-0.3,0-0.4-0.1
		c-0.4-0.2-1-0.5-1.8-1c-0.9-0.5-1.9-1.2-3-2c-1.2-0.8-2.2-1.4-3.1-1.8h-16.1l-6.2,7l-7.9-7.2c2.2-3.1,3.4-5,3.4-5.5
		c0-0.1-0.1-1.5-0.3-4.1c-0.2-2.7-0.3-5-0.4-6.9s-0.1-3.2,0.2-3.9c0.2,0,0.5,0.1,1.1,0.2c0.6,0.1,1.5,0.2,2.6,0.3
		c1.1,0.1,2.3,0.2,3.6,0.2h20.5c2-4.1,4.4-6.9,7.3-8.4c0.3-0.2,0.6,0.6,0.9,2.2C143.5,174.7,143.6,175.2,143.6,175.6z M129.7,149
		v16.8h9.6V149H129.7z M129.7,127.3v18.9h9.6v-18.9H129.7z M117.7,197.1H135l-0.3-14.2h-16.9V197.1z M110.7,149l-0.1,16.8h10V149
		H110.7z M110.8,127.3l-0.1,18.9h9.8v-18.9H110.8z"/>
</g>
<g>
	<path d="M198.3,80.7c-1.5,0.2-2.5,1-2.5,2.3v17.1c0,1.8,0,2.1,2.5,2.7v1.1h-2.7c-4.4,0-5.8,0.1-5.8,0.1l-0.2-0.1
		c0,0,1.2-1.6,1.2-4.6V83.5c0-1.1,0.2-2.1,0.2-2.1h-5.3c-3,0-3.8,1.4-5.6,5.1h-1.4l1.5-7H192c2.5,0,6.3-0.1,6.3-0.1V80.7z"/>
	<path d="M175.9,100.2c0,1.8,0,2.1,2.5,2.7v1.1h-2.7c-4.6,0-5.8,0.1-5.8,0.1l-0.2-0.1c0,0,1.2-1.5,1.2-4.6V88.4c0-5-3.4-7.2-6.8-7.2
		s-6.7,2.4-6.7,6.9V100c0,1.6,0,2.5,2.8,2.7v1.2h-7.6l-0.2-0.7c0,0,2.7-0.9,2.7-3.9V88.2c0-6.1,4.5-9.2,10.1-9.2
		c4.9,0,10.5,2.3,10.5,9V100.2z"/>
	<path d="M137.1,104.4c-3.2,0-6.7-0.8-8.6-1l1.1-5.7h1.4c0.1,3.7,3.1,4.9,6.5,4.9c5.9,0,8.4-4.7,8.4-9.7c0-6.8-4.8-10.5-10.3-10.5
		c-4.2,0-7,2.5-7,2.5l-0.6-1c0,0,3-4.8,9.9-4.8c8.1,0,12.9,6,12.9,12.3C150.8,97.6,146.2,104.4,137.1,104.4z"/>
	<path d="M125.2,80.7c-1.5,0.2-2.5,1-2.5,2.3v17.1c0,1.8,0,2.1,2.5,2.7v1.1h-2.7c-4.6,0-5.8,0.1-5.8,0.1l-0.2-0.1
		c0,0,1.2-1.4,1.2-4.4V93h-0.7c0,0-1.1,0.7-1.8,1.4l-6.4,6.6c-0.7,0.7-0.8,1.5,1.2,1.8v1.1h-7.3l-0.2-0.7c0,0,2.3-0.7,3.9-2.5
		l6.3-6.5v-0.6L104.6,83c-1.4-1.9-1.8-2-2.7-2.1l-0.4,0l0.1-1.4h7l0.1,0.1c0,0,0.3,1.1,2.4,3.8l5.9,7.6h0.7V83
		c0-1.1,0.2-1.9,0.2-1.9l-3.1-0.3l0.1-1.2l10.1-0.2V80.7z"/>
</g>
</svg>
