<?xml version="1.0" encoding="utf-8"?>
<!-- Generator: Adobe Illustrator 22.1.0, SVG Export Plug-In . SVG Version: 6.00 Build 0)  -->
<svg version="1.1" id="Layer_1" xmlns="http://www.w3.org/2000/svg" xmlns:xlink="http://www.w3.org/1999/xlink" x="0px" y="0px"
	 viewBox="0 0 300 300" style="enable-background:new 0 0 300 300;" xml:space="preserve">
<style type="text/css">
	.st0{fill:#D82727;}
	.st1{fill:#FFED46;}
	.st2{fill:none;stroke:#FFED46;stroke-width:3;stroke-miterlimit:10;}
</style>
<rect x="46.1" y="46" transform="matrix(0.7071 -0.7071 0.7071 0.7071 -62.0806 149.9787)" class="st0" width="207.9" height="207.9"/>
<g>
	<path class="st1" d="M192.6,185.8c0,0.9-0.2,1.4-0.6,1.5c-0.4,0.1-0.8,0-1.3-0.3c-0.1,0-0.6-0.2-1.3-0.5c-0.7-0.3-1.5-0.7-2.4-1.2
		c-0.9-0.5-1.8-1-2.6-1.5c-0.9-0.5-1.6-0.9-2.2-1.2l-0.9-0.6l1.9-7.7v-28.2c0-1.6,0.3-3.7,1-6.3c0.6-2.6,1.7-5.7,3.1-9.1
		c1.4-3.5,3.6-7.1,6.7-10.6c3-3.6,6.5-6.7,10.5-9l0.7,0.6c-0.4,0.4-0.9,1-1.5,1.7c-0.6,0.8-1.6,2.4-3.1,4.9c-1.5,2.5-2.8,5.1-4,7.7
		c-1.2,2.6-2.2,6-3.1,9.9c-0.9,4-1.4,8.1-1.4,12v24.4C192.2,180.5,192.4,185.1,192.6,185.8z M169.5,194.5V140c0-1.7-0.1-4.2-0.2-7.6
		c-0.1-3.3-0.2-5.6-0.2-6.8c0-1.2,0.1-2.5,0.3-3.8c0.2-0.3,0.4-0.6,0.7-1s0.8-0.8,1.5-1.2c0.7-0.4,1.2-0.8,1.6-1.1s1.1-0.7,2.1-1.2
		c1-0.6,1.5-0.9,1.7-1c1,0.8,1.6,2,1.7,3.5c0.1,1.5-0.1,4.5-0.5,8.8c-0.4,4.3-0.6,8.5-0.6,12.5v53.2h4.7c1.3,0,8.2-0.2,20.5-0.4
		l1.2,4.5c-0.6-0.2-2.9-0.5-6.9-0.7c-4-0.3-6.8-0.4-8.2-0.4h-24.4l-7.3,7.4l-9.1-9.1c0-0.4,0.3-0.6,1-0.8c0.7-0.2,1.6-0.2,2.7-0.3
		c1.2,0,2.3-0.1,3.3-0.1s2.2,0,3.4,0c1.2,0,2,0,2.2,0L169.5,194.5L169.5,194.5z M175.1,210.7c0.7,0,2.6-0.1,5.8-0.3s7.6-0.5,13.3-1
		l1.2,5.1c-0.5-0.2-2.8-0.5-6.9-0.7c-4.1-0.3-6.8-0.4-8.2-0.4h-7.8l-7.3,7.5l-9.1-9.2c0-0.3,0.3-0.5,1-0.7s1.6-0.3,2.7-0.3
		c1.2,0,2.2-0.1,3.2-0.1s2.1,0,3.4,0.1c1.2,0,2,0.1,2.3,0.1L175.1,210.7L175.1,210.7z M154.8,181l1.9-7.8v-19.4c0-1.6,0-3.9-0.1-7.1
		c-0.1-3.2-0.1-5.7-0.1-7.5s0.1-3,0.3-3.4c0.1-0.1,0.2-0.2,0.2-0.4c0.2-0.7,0.4-1.3,0.7-1.7c0.2-0.4,0.8-0.9,1.7-1.4
		c0.9-0.5,2.1-0.9,3.6-1.2c0.5-0.1,0.9,0.3,1.3,1.1c0.3,0.8,0.5,1.9,0.6,3.3c0,1.4,0,2.8,0,4.1s-0.1,2.7-0.2,4.2
		c-0.1,1.5-0.2,2.5-0.2,2.9v24.5c0.2,8.4,0.4,12.9,0.7,13.5c0,1-0.2,1.5-0.6,1.6c-0.4,0.1-0.9,0-1.5-0.3c-0.2,0-1-0.4-2.4-1.3
		c-1.4-0.9-2.7-1.7-4-2.5L154.8,181z M106.7,221.8l-8.9-8.1c0-0.3,0.5-0.5,1.5-0.7c1-0.2,2.2-0.3,3.8-0.3s3-0.1,4.4-0.1
		s2.9,0,4.4,0.1c1.6,0,2.5,0.1,2.7,0.1h15.1l18.6-1.5l2,3.9l-0.6,0.9c-0.4,0.2-0.8,0.3-1.2,0.3c-5.4-0.6-9.5-0.9-12.5-0.9H115
		L106.7,221.8z M98.7,166.7l2.7-4.4v-27.4c0-1.3-0.1-3.1-0.4-5.4c-0.3-2.3-0.4-4.1-0.3-5.3c0.4-1.1,1.4-2.6,3.1-4.5
		c1.7-1.9,2.9-2.9,3.7-3c0.2,0,0.5,0.4,1.1,1.3c0.6,0.9,1.3,2,2.2,3.4c0.9,1.4,1.6,2.4,2.1,3.1h26.6v-0.2c0-1.5,0.2-2.7,0.6-3.7
		c0.2-0.7,0.8-1.6,1.7-2.9c0.9-1.3,2-2.4,3.1-3.4c0.5-0.4,1.4-0.4,2.6,0.2c1.2,0.6,1.8,1.5,1.8,2.9c0,1.1-0.1,2.9-0.3,5.2
		c-0.2,2.3-0.3,3.7-0.3,4v30.9c0.2,7.1,0.3,10.9,0.6,11.5c0,1-0.2,1.5-0.6,1.6c-0.4,0.1-0.8,0-1.3-0.3c-0.3,0-2.4-0.7-6.3-2h-28.6
		l-5.8,6L98.7,166.7z M143.6,175.5c0.1,1.9,0.1,3.9,0.1,6.1c0,2.2,0,4.2,0.1,6c0,1.8,0.1,3.5,0.1,5.1c0,1.6,0.1,3.3,0.1,5.1
		c-0.1,1.1-0.1,2.5-0.1,4.3c0,1.7-0.2,2.6-0.6,2.6c-0.1,0-0.3,0-0.4-0.1c-0.4-0.2-1-0.5-1.8-1c-0.9-0.5-1.9-1.2-3-2
		c-1.2-0.8-2.2-1.4-3.1-1.8h-16l-6.2,7l-7.9-7.2c2.2-3.1,3.4-5,3.4-5.5c0-0.1-0.1-1.5-0.3-4.1c-0.2-2.7-0.3-5-0.4-6.9
		c-0.1-1.9-0.1-3.2,0.2-3.9c0.2,0,0.5,0.1,1.1,0.2c0.6,0.1,1.5,0.2,2.6,0.3c1.1,0.1,2.3,0.2,3.6,0.2h20.4c2-4.1,4.4-6.9,7.3-8.4
		c0.3-0.2,0.6,0.6,0.9,2.2C143.5,174.6,143.6,175.1,143.6,175.5z M129.8,149v16.7h9.5V149H129.8z M129.8,127.4v18.8h9.5v-18.8
		C139.4,127.4,129.8,127.4,129.8,127.4z M117.9,196.8h17.2l-0.3-14.1H118L117.9,196.8L117.9,196.8z M110.9,149l-0.1,16.7h9.9V149
		H110.9z M111,127.4l-0.1,18.8h9.7v-18.8C120.7,127.4,111,127.4,111,127.4z"/>
</g>
<g>
	<path class="st1" d="M198,81.1c-1.5,0.2-2.5,1-2.5,2.3v17c0,1.8,0,2.1,2.5,2.7v1.1h-2.7c-4.4,0-5.8,0.1-5.8,0.1l-0.2-0.1
		c0,0,1.2-1.6,1.2-4.6V83.9c0-1.1,0.2-2.1,0.2-2.1h-5.3c-3,0-3.8,1.4-5.6,5.1h-1.4l1.5-7h11.7c2.5,0,6.3-0.1,6.3-0.1V81.1z"/>
	<path class="st1" d="M175.8,100.5c0,1.8,0,2.1,2.5,2.7v1.1h-2.7c-4.6,0-5.8,0.1-5.8,0.1l-0.2-0.1c0,0,1.2-1.5,1.2-4.6V88.7
		c0-5-3.4-7.2-6.8-7.2c-3.4,0-6.7,2.4-6.7,6.9v11.8c0,1.6,0,2.5,2.8,2.7v1.2h-7.6l-0.2-0.7c0,0,2.7-0.9,2.7-3.9v-11
		c0-6.1,4.5-9.1,10-9.1c4.9,0,10.4,2.3,10.4,8.9v12.1H175.8z"/>
	<path class="st1" d="M137.2,104.7c-3.2,0-6.7-0.8-8.6-1l1.1-5.7h1.4c0.1,3.7,3.1,4.9,6.5,4.9c5.9,0,8.4-4.7,8.4-9.6
		c0-6.8-4.8-10.4-10.2-10.4c-4.2,0-7,2.5-7,2.5l-0.6-1c0,0,3-4.8,9.8-4.8c8.1,0,12.8,6,12.8,12.2
		C150.8,97.9,146.2,104.7,137.2,104.7z"/>
	<path class="st1" d="M125.3,81.1c-1.5,0.2-2.5,1-2.5,2.3v17c0,1.8,0,2.1,2.5,2.7v1.1h-2.7c-4.6,0-5.8,0.1-5.8,0.1l-0.2-0.1
		c0,0,1.2-1.4,1.2-4.4v-6.5h-0.7c0,0-1.1,0.7-1.8,1.4l-6.4,6.6c-0.7,0.7-0.8,1.5,1.2,1.8v1.1H103l-0.2-0.7c0,0,2.3-0.7,3.9-2.5
		l6.3-6.5v-0.6l-8.1-10.5c-1.4-1.9-1.8-2-2.7-2.1h-0.4l0.1-1.4h7l0.1,0.1c0,0,0.3,1.1,2.4,3.8l5.9,7.6h0.7v-8c0-1.1,0.2-1.9,0.2-1.9
		l-3.1-0.3l0.1-1.2l10-0.2v1.3H125.3z"/>
</g>
<rect x="55.3" y="55.2" transform="matrix(0.7071 -0.7071 0.7071 0.7071 -62.0806 149.9787)" class="st2" width="189.4" height="189.4"/>
</svg>
