<?xml version="1.0" encoding="utf-8"?>
<!-- Generator: Adobe Illustrator 22.1.0, SVG Export Plug-In . SVG Version: 6.00 Build 0)  -->
<svg version="1.1" id="Layer_1" xmlns="http://www.w3.org/2000/svg" xmlns:xlink="http://www.w3.org/1999/xlink" x="0px" y="0px"
	 viewBox="0 0 300 300" style="enable-background:new 0 0 300 300;" xml:space="preserve">
<style type="text/css">
	.st0{fill:#D82727;}
	.st1{fill:#FFED46;}
	.st2{fill:none;stroke:#FFED46;stroke-width:3;stroke-miterlimit:10;}
</style>
<rect x="44" y="43.9" transform="matrix(0.7071 -0.7071 0.7071 0.7071 -62.0525 150.008)" class="st0" width="212" height="212"/>
<g>
	<path class="st1" d="M193.4,181.4c0,0.9-0.2,1.4-0.6,1.5s-0.8,0-1.3-0.3c-0.1,0-0.6-0.2-1.3-0.5c-0.7-0.3-1.5-0.7-2.4-1.2
		c-0.9-0.5-1.8-1-2.7-1.5c-0.9-0.5-1.6-0.9-2.2-1.2l-0.9-0.6l1.9-7.9v-28.8c0-1.6,0.3-3.8,1-6.4c0.6-2.7,1.7-5.8,3.2-9.3
		c1.4-3.6,3.7-7.2,6.8-10.8c3.1-3.7,6.6-6.8,10.7-9.2l0.7,0.6c-0.4,0.4-0.9,1-1.5,1.7c-0.6,0.8-1.6,2.4-3.2,5
		c-1.5,2.5-2.9,5.2-4.1,7.9c-1.2,2.7-2.2,6.1-3.2,10.1c-0.9,4.1-1.4,8.3-1.4,12.2v24.9C193,176,193.2,180.7,193.4,181.4z
		 M169.9,190.3v-55.6c0-1.7-0.1-4.3-0.2-7.8c-0.1-3.4-0.2-5.7-0.2-6.9s0.1-2.5,0.3-3.9c0.2-0.3,0.4-0.6,0.7-1s0.8-0.8,1.5-1.2
		c0.7-0.4,1.2-0.8,1.6-1.1c0.4-0.3,1.1-0.7,2.1-1.2c1-0.6,1.5-0.9,1.7-1c1,0.8,1.6,2,1.7,3.6s-0.1,4.6-0.5,9s-0.6,8.7-0.6,12.7v54.3
		h4.8c1.3,0,8.4-0.2,20.9-0.4l1.2,4.6c-0.6-0.2-3-0.5-7-0.7c-4.1-0.3-6.9-0.4-8.4-0.4h-24.9l-7.4,7.5l-9.3-9.3c0-0.4,0.3-0.6,1-0.8
		c0.7-0.2,1.6-0.2,2.8-0.3c1.2,0,2.3-0.1,3.4-0.1s2.2,0,3.5,0c1.2,0,2,0,2.2,0L169.9,190.3L169.9,190.3z M175.6,206.8
		c0.7,0,2.7-0.1,5.9-0.3s7.8-0.5,13.6-1l1.2,5.2c-0.5-0.2-2.9-0.5-7-0.7c-4.2-0.3-6.9-0.4-8.4-0.4h-8l-7.4,7.6l-9.3-9.4
		c0-0.3,0.3-0.5,1-0.7c0.7-0.2,1.6-0.3,2.8-0.3c1.2,0,2.2-0.1,3.3-0.1s2.1,0,3.5,0.1c1.2,0,2,0.1,2.3,0.1L175.6,206.8L175.6,206.8z
		 M154.9,176.5l1.9-8v-19.8c0-1.6,0-4-0.1-7.2c-0.1-3.3-0.1-5.8-0.1-7.6c0-1.8,0.1-3.1,0.3-3.5c0.1-0.1,0.2-0.2,0.2-0.4
		c0.2-0.7,0.4-1.3,0.7-1.7c0.2-0.4,0.8-0.9,1.7-1.4c0.9-0.5,2.1-0.9,3.7-1.2c0.5-0.1,0.9,0.3,1.3,1.1c0.3,0.8,0.5,1.9,0.6,3.4
		c0,1.4,0,2.9,0,4.2c0,1.3-0.1,2.8-0.2,4.3c-0.1,1.5-0.2,2.5-0.2,3v25c0.2,8.6,0.4,13.2,0.7,13.8c0,1-0.2,1.5-0.6,1.6
		c-0.4,0.1-0.9,0-1.5-0.3c-0.2,0-1-0.4-2.4-1.3c-1.4-0.9-2.8-1.7-4.1-2.5L154.9,176.5z M105.8,218.1l-9.1-8.3c0-0.3,0.5-0.5,1.5-0.7
		c1-0.2,2.2-0.3,3.9-0.3s3.1-0.1,4.5-0.1c1.4,0,3,0,4.5,0.1c1.6,0,2.5,0.1,2.8,0.1h15.4l19-1.5l2,4l-0.6,0.9
		c-0.4,0.2-0.8,0.3-1.2,0.3c-5.5-0.6-9.7-0.9-12.7-0.9h-21.4L105.8,218.1z M97.7,161.9l2.8-4.5v-27.9c0-1.3-0.1-3.2-0.4-5.5
		c-0.3-2.3-0.4-4.2-0.3-5.4c0.4-1.1,1.4-2.7,3.2-4.6c1.7-1.9,3-3,3.8-3.1c0.2,0,0.5,0.4,1.1,1.3c0.6,0.9,1.3,2,2.2,3.5
		c0.9,1.4,1.6,2.4,2.1,3.2h27.1v-0.2c0-1.5,0.2-2.8,0.6-3.8c0.2-0.7,0.8-1.6,1.7-3c0.9-1.3,2-2.4,3.2-3.5c0.5-0.4,1.4-0.4,2.7,0.2
		c1.2,0.6,1.8,1.5,1.8,3c0,1.1-0.1,3-0.3,5.3c-0.2,2.3-0.3,3.8-0.3,4.1v31.5c0.2,7.2,0.3,11.1,0.6,11.7c0,1-0.2,1.5-0.6,1.6
		c-0.4,0.1-0.8,0-1.3-0.3c-0.3,0-2.4-0.7-6.4-2h-29.2l-5.9,6.1L97.7,161.9z M143.5,170.9c0.1,1.9,0.1,4,0.1,6.2c0,2.2,0,4.3,0.1,6.1
		c0,1.8,0.1,3.6,0.1,5.2s0.1,3.4,0.1,5.2c-0.1,1.1-0.1,2.5-0.1,4.4c0,1.7-0.2,2.7-0.6,2.7c-0.1,0-0.3,0-0.4-0.1
		c-0.4-0.2-1-0.5-1.8-1c-0.9-0.5-1.9-1.2-3.1-2c-1.2-0.8-2.2-1.4-3.2-1.8h-16.3l-6.3,7.1l-8.1-7.3c2.2-3.2,3.5-5.1,3.5-5.6
		c0-0.1-0.1-1.5-0.3-4.2c-0.2-2.8-0.3-5.1-0.4-7s-0.1-3.3,0.2-4c0.2,0,0.5,0.1,1.1,0.2c0.6,0.1,1.5,0.2,2.7,0.3s2.3,0.2,3.7,0.2
		h20.8c2-4.2,4.5-7,7.4-8.6c0.3-0.2,0.6,0.6,0.9,2.2C143.4,170,143.5,170.5,143.5,170.9z M129.4,143.9v17h9.7v-17H129.4z
		 M129.4,121.9V141h9.7v-19.2C139.2,121.9,129.4,121.9,129.4,121.9z M117.3,192.6h17.5l-0.3-14.4h-17.1L117.3,192.6L117.3,192.6z
		 M110.1,143.9l-0.1,17h10.1v-17H110.1z M110.2,121.9l-0.1,19.2h9.9v-19.2C120.1,121.9,110.2,121.9,110.2,121.9z"/>
</g>
<rect x="53.4" y="53.3" transform="matrix(0.7071 -0.7071 0.7071 0.7071 -62.0736 149.957)" class="st2" width="193.1" height="193.1"/>
<g>
	<path class="st1" d="M196.3,99.4c0.1-2,0.1-4,0.1-6.1h-3.1l-0.3,2.2H192v-5.2h0.9l0.3,2.3h3.1c0-2.2,0-4.3-0.1-6.3l-2.2-0.2v-0.7h7
		V86l-1.9,0.2c0,2,0,4,0,6.1v1c0,2,0,4,0,6.1l1.9,0.2v0.7h-11.3l0-3.9h1.1l0.8,3.1H196.3z"/>
	<path class="st1" d="M174.4,92.8c0-5,3.3-7.8,6.9-7.8s7,2.7,7,7.8c0,5-3.3,7.8-7,7.8C177.6,100.6,174.4,97.9,174.4,92.8z
		 M181.3,85.8c-2.7,0-4,3.1-4,7c0,3.9,1.3,7,4,7c2.7,0,3.9-3.1,3.9-7C185.2,88.9,184,85.8,181.3,85.8z"/>
	<path class="st1" d="M158.9,86v-0.7c0.6-0.2,1.2-0.3,2.1-0.3c1.6,0,2.5,0.5,2.7,1.8l0.7,3.1c0.3,1.7,0.9,2.4,2.6,2.4h1.1
		c0-2.1,0-4.1-0.1-6.1l-2-0.2v-0.7h6.7V86l-1.9,0.2c0,2,0,4,0,6.1v1c0,2,0,4,0,6.1l1.9,0.2v0.7H166c-3.4,0-5.4-1.4-5.4-3.8
		c0-1.7,1.2-3.3,4.1-3.7c-2.2-0.3-2.9-1.3-3.3-3.2l-0.8-3.4L158.9,86z M166.7,93.1c-2.3,0-3.3,1.4-3.3,3.3c0,2,1.1,3.1,3.2,3.1h1.5
		c0.1-2,0.1-4.1,0.1-6.4H166.7z"/>
	<path class="st1" d="M151.2,99.4c0-2,0-4.1,0-6.1v-1c0-2,0-4,0-6.1L149,86v-0.7h7.2V86l-2.2,0.2c0,2,0,4,0,6.1v1c0,2,0,4.1,0,6.1
		h3.1l0.8-3.3h1.1l-0.1,4.2h-12.8l-0.1-4.2h1.1l0.8,3.3H151.2z"/>
	<path class="st1" d="M130.1,99.5l2-0.3l0.1-7.8c0-4.5,2-6.5,5.4-6.5c3.4,0,5.7,1.7,5.7,6.2v2.2c0,2,0,4,0.1,6l1.8,0.2v0.7h-6.7
		v-0.7l2.1-0.2c0.1-2,0.1-4,0.1-6v-1.9c0-3.7-1.3-5-3.6-5c-2.5,0-3.8,1.5-3.8,5.2l0.1,7.5l2.3,0.3v0.7h-5.4V99.5z"/>
	<path class="st1" d="M114,99.5l1.9-0.3l0.1-14h1.4l8.9,12.5l-0.1-11.5l-2.6-0.3v-0.7h5.4V86l-1.9,0.2l-0.1,12.6l0.3,0.4l1.5,0.2
		v0.7h-4.2l-7.9-10.9l0.1,9.9l2.6,0.3v0.7H114V99.5z"/>
	<path class="st1" d="M100.9,89.4l0.1-4h11.6V86l-1.9,0.2c0,2,0,4,0,6.1v1c0,2,0,4,0,6.1l1.9,0.2v0.7h-11.2l0-3.9h1.1l0.8,3.1h4.6
		c0.1-2,0.1-4,0.1-6.1h-3l-0.3,2.2h-0.9v-5.1h0.9l0.3,2.1h3c0-2.3,0-4.3-0.1-6.4h-5l-0.8,3.2H100.9z"/>
</g>
</svg>
